<svg width="46" height="15" viewBox="0 0 46 15" fill="none" xmlns="http://www.w3.org/2000/svg">
<g clip-path="url(#clip0_189_3249)">
<path d="M10.1768 3.11788C9.66809 3.11788 9.2621 2.96697 8.95881 2.66516C8.65555 2.35362 8.50391 1.98366 8.50391 1.55528C8.50391 1.1269 8.65065 0.761806 8.94414 0.459992C9.24743 0.148449 9.65832 -0.00732422 10.1768 -0.00732422C10.6953 -0.00732422 11.1013 0.148449 11.3948 0.459992C11.698 0.761806 11.8497 1.1269 11.8497 1.55528C11.8497 1.98366 11.698 2.35362 11.3948 2.66516C11.1013 2.96697 10.6953 3.11788 10.1768 3.11788Z" fill="#00B004"/>
<path d="M29.3717 11.1939V9.29545C30.3108 8.6918 31.0935 8.07844 31.7196 7.45536C32.3555 6.83224 32.8349 6.23348 33.1577 5.65909C33.4806 5.08466 33.642 4.58326 33.642 4.15488C33.642 3.48312 33.3093 3.14724 32.6441 3.14724C32.2626 3.14724 31.9348 3.26893 31.6609 3.51233C31.3968 3.746 31.206 4.0332 31.0886 4.37396L29.0488 3.24946C29.2249 2.7432 29.5038 2.30022 29.8854 1.92052C30.2668 1.53109 30.7267 1.22927 31.2647 1.01509C31.8027 0.791161 32.3848 0.679199 33.011 0.679199C33.7349 0.679199 34.3562 0.815505 34.8746 1.0881C35.3931 1.36071 35.7893 1.73554 36.0633 2.21259C36.3371 2.67991 36.4693 3.21539 36.4595 3.81899C36.4595 4.67575 36.1954 5.53737 35.667 6.40386C35.1387 7.27038 34.2681 8.11737 33.055 8.94493H36.6942V11.1939H29.3717Z" fill="#00B004"/>
<path d="M41.37 11.1937V8.97403H37.0117V7.06091L42.1182 0.795898H44.0993V6.88566H45.5671V8.97403H44.0993V11.1937H41.37ZM39.6238 6.88566H41.37V4.75351L39.6238 6.88566Z" fill="#00B004"/>
<path d="M4.89572 11.3536C4.08372 11.3536 3.37934 11.2027 2.78258 10.901C2.1956 10.5894 1.74069 10.1513 1.41785 9.58658C1.09501 9.02196 0.933594 8.35988 0.933594 7.60051C0.933594 6.81191 1.10969 6.1158 1.46188 5.51218C1.81406 4.90856 2.29832 4.43635 2.91464 4.0956C3.54076 3.75484 4.2598 3.58447 5.07181 3.58447C5.78595 3.58447 6.40717 3.72078 6.93546 3.99338C7.46372 4.26597 7.86484 4.67002 8.13876 5.20549L6.23109 6.63667C6.0452 6.16933 5.68322 5.93569 5.14516 5.93569C4.7245 5.93569 4.38698 6.08657 4.13263 6.3884C3.87827 6.68046 3.75109 7.06991 3.75109 7.55668C3.75109 8.01429 3.8636 8.36968 4.0886 8.62278C4.31361 8.87591 4.63644 9.00246 5.05714 9.00246C5.5952 9.00246 6.00118 8.75416 6.2751 8.25769L8.10942 9.76183C7.80612 10.2876 7.38056 10.6868 6.83273 10.9594C6.2849 11.2222 5.63921 11.3536 4.89572 11.3536Z" fill="#1B1B1B"/>
<path d="M11.5576 3.68652V11.1929H8.82812V3.68652H11.5576Z" fill="#1B1B1B"/>
<path d="M16.8554 11.3537C15.8575 11.3537 15.0749 11.086 14.5075 10.5505C13.94 10.0053 13.6612 9.29458 13.671 8.41836L13.715 5.92115H12.5117V3.68677H13.759L13.7884 2.16797H16.4885L16.4592 3.68677H18.719V5.92115H16.4298L16.4005 8.09706C16.3907 8.39893 16.4689 8.63256 16.6353 8.79811C16.8113 8.95386 17.051 9.03171 17.3542 9.03171C17.5597 9.03171 17.7652 9.00734 17.9706 8.95872C18.176 8.90026 18.3864 8.79811 18.6016 8.65206L19.3647 10.6965C19.1201 10.901 18.7826 11.0616 18.3522 11.1785C17.9217 11.2953 17.4227 11.3537 16.8554 11.3537Z" fill="#1B1B1B"/>
<path d="M22.7438 14.2596C22.4307 14.2596 22.0884 14.2353 21.7166 14.1866C21.3547 14.1477 21.0025 14.0795 20.6601 13.9821C20.3274 13.8848 20.0486 13.7631 19.8236 13.6171L20.4692 11.3097C20.8411 11.4946 21.2177 11.6358 21.5992 11.7332C21.9905 11.8403 22.4259 11.8938 22.9052 11.8938C23.6781 11.8938 24.2308 11.7283 24.5634 11.3973C24.896 11.0662 25.0918 10.5503 25.1504 9.84933L25.1797 9.48424C24.8863 9.95155 24.5194 10.3215 24.0792 10.5941C23.639 10.8667 23.1351 11.003 22.5677 11.003C21.6188 11.003 20.9193 10.6915 20.4692 10.0684C20.0193 9.44532 19.7992 8.58366 19.8089 7.4835L19.8236 3.68652H22.5531L22.5384 7.30825C22.5384 7.69767 22.6117 7.98977 22.7585 8.18451C22.915 8.37918 23.1303 8.47657 23.4041 8.47657C23.7466 8.47657 24.0352 8.33539 24.2699 8.05306C24.5145 7.76096 24.7053 7.26929 24.8423 6.57805C24.989 5.87707 25.0721 4.91323 25.0918 3.68652H27.7332V9.55727C27.7332 10.6477 27.5228 11.5385 27.1021 12.2298C26.6913 12.921 26.1092 13.4321 25.3559 13.7631C24.6124 14.0941 23.7417 14.2596 22.7438 14.2596Z" fill="#1B1B1B"/>
</g>
<defs>
<clipPath id="clip0_189_3249">
<rect width="45" height="14.2683" fill="white" transform="translate(0.75 -0.00732422)"/>
</clipPath>
</defs>
</svg>
