<svg width="46" height="19" viewBox="0 0 46 19" fill="none" xmlns="http://www.w3.org/2000/svg">
<path d="M45.2494 8.03297C44.9981 8.60446 44.7479 9.17646 44.4953 9.74736C43.8549 11.1948 43.2413 12.6543 42.5784 14.0917C42.1736 14.9695 41.7057 15.8128 41.0851 16.5612C40.6866 17.0418 40.2567 17.4888 39.7038 17.7977C39.4935 17.9152 39.2766 18.0172 39.0466 18.0912C38.9823 18.1119 38.9527 18.1041 38.9357 18.0327C38.8679 17.7476 38.7962 17.4635 38.7225 17.1799C38.7056 17.1148 38.7259 17.0854 38.7858 17.0612C39.1324 16.9207 39.4585 16.7415 39.7591 16.519C40.0952 16.2702 40.3562 15.9494 40.6004 15.6145C40.7665 15.3867 40.9064 15.1426 41.0408 14.8948C41.1162 14.7558 41.1318 14.6096 41.103 14.4599C40.8517 13.1568 40.5978 11.8543 40.345 10.5515C40.1904 9.75495 40.0362 8.95826 39.8821 8.16157C39.8602 8.04817 39.8622 8.04567 39.9741 8.04557C40.2761 8.04527 40.5782 8.04797 40.8801 8.04377C40.9613 8.04267 40.99 8.06937 41.0028 8.14987C41.1573 9.12176 41.3152 10.0932 41.4734 11.0644C41.5742 11.683 41.6771 12.3013 41.7792 12.9197C41.8107 13.1104 41.8424 13.3011 41.8745 13.4917C41.8787 13.5166 41.8744 13.5523 41.9066 13.5569C41.9427 13.5621 41.9416 13.5228 41.9498 13.5007C42.3354 12.465 42.7495 11.4405 43.162 10.4155C43.4728 9.64316 43.7852 8.87156 44.0937 8.09837C44.1242 8.02197 44.1614 7.98967 44.2471 7.99127C44.5812 7.99757 44.9155 7.99617 45.2497 7.99757C45.2494 8.00947 45.2494 8.02117 45.2494 8.03297Z" fill="#1B1B1B"/>
<path d="M23.8015 0.150879C23.8793 0.163179 23.9574 0.173879 24.0348 0.188179C24.8658 0.341278 25.4765 1.08457 25.497 1.93167C25.5186 2.82396 24.8701 3.64935 23.9206 3.77025C22.8868 3.90185 21.993 3.17046 21.8784 2.17066C21.7696 1.22077 22.4664 0.322478 23.4348 0.172079C23.4808 0.164979 23.5293 0.174079 23.5728 0.15098C23.649 0.15088 23.7252 0.150879 23.8015 0.150879Z" fill="#F8A81B"/>
<path d="M18.8758 16.412C19.0003 16.1998 19.1191 15.9983 19.237 15.7963C19.7884 14.8518 20.3182 13.8957 20.8149 12.921C21.1945 12.1762 21.5513 11.4214 21.8569 10.6428C22.136 9.93173 22.294 9.19043 22.4096 8.43884C22.4578 8.12574 22.4803 7.81124 22.4496 7.49315C22.3901 6.87665 22.0688 6.47695 21.4783 6.29086C21.1824 6.19756 20.8782 6.16106 20.5713 6.13306C19.7996 6.06266 19.0262 6.05516 18.2525 6.06606C17.6872 6.07396 17.1224 6.10036 16.5588 6.14686C16.5482 6.14776 16.5372 6.14406 16.5195 6.14156C16.5387 6.10166 16.5728 6.08946 16.6016 6.07296C17.2437 5.70356 17.9169 5.40086 18.6113 5.14516C19.3637 4.86817 20.1338 4.65297 20.9219 4.50437C21.4548 4.40377 21.9916 4.33327 22.5332 4.29737C22.899 4.27317 23.2648 4.26007 23.6312 4.26697C25.2155 4.29667 26.7645 4.53387 28.2624 5.06426C28.9912 5.32236 29.6934 5.63756 30.3483 6.05216C30.3869 6.07656 30.4532 6.09686 30.4482 6.13906C30.4429 6.18416 30.3726 6.18266 30.3298 6.19666C29.7646 6.38066 29.1839 6.49175 28.5942 6.55705C28.1839 6.60245 27.7704 6.62345 27.3665 6.71565C27.1253 6.77065 26.8908 6.84445 26.6879 6.99375C26.4123 7.19655 26.2886 7.48505 26.2359 7.81024C26.172 8.20394 26.193 8.59854 26.2308 8.99324C26.292 9.63233 26.4293 10.2545 26.6392 10.8609C26.7054 11.0521 26.7781 11.2408 26.8641 11.4241C26.875 11.4472 26.8913 11.4692 26.8879 11.5015C26.8506 11.5087 26.8274 11.4819 26.8016 11.4672C26.262 11.1585 25.6927 10.9319 25.0715 10.8584C24.2587 10.7623 23.5657 10.9862 23.0071 11.6103C22.5474 12.124 22.0948 12.6424 21.6819 13.1945C21.3325 13.6616 21.0021 14.1428 20.6365 14.5979C20.1251 15.2344 19.5772 15.8361 18.9593 16.3717C18.94 16.3885 18.9251 16.4131 18.8758 16.412Z" fill="#136BB5"/>
<path d="M28.9315 7.99381C29.0634 7.99371 29.1954 7.99621 29.3273 7.99281C29.4037 7.99081 29.4225 8.01921 29.4106 8.09341C29.3512 8.46351 29.2958 8.8343 29.2404 9.205C29.2365 9.2312 29.2086 9.2709 29.2437 9.2835C29.2811 9.2969 29.2915 9.2486 29.3075 9.2238C29.5394 8.8658 29.8226 8.5559 30.1683 8.30461C30.3663 8.16071 30.5803 8.04631 30.8102 7.96221C30.9432 7.91351 31.0787 7.88341 31.2226 7.88921C31.3748 7.89531 31.5279 7.89781 31.6798 7.88921C32.0777 7.86671 32.3979 8.03591 32.6766 8.29481C33.0297 8.6228 33.2064 9.0484 33.3056 9.5093C33.4331 10.1012 33.4197 10.6976 33.3363 11.2928C33.2474 11.9281 33.0568 12.533 32.75 13.0978C32.3656 13.8055 31.8541 14.3936 31.1304 14.7731C30.757 14.9689 30.3595 15.0809 29.9355 15.0948C29.5158 15.1086 29.1046 15.0677 28.7092 14.9177C28.6409 14.8918 28.5753 14.8584 28.5098 14.8258C28.4292 14.7857 28.4164 14.7899 28.4014 14.8781C28.3586 15.1293 28.3174 15.3807 28.275 15.632C28.1614 16.3048 28.046 16.9774 27.9356 17.6508C27.9206 17.7422 27.8846 17.7704 27.7929 17.7684C27.5204 17.7625 27.2476 17.7664 26.9749 17.7662C26.8396 17.7661 26.838 17.7657 26.8602 17.6365C26.9734 16.9784 27.0877 16.3205 27.2011 15.6625C27.3866 14.5859 27.5717 13.5093 27.757 12.4326C27.8886 11.6677 28.0224 10.9032 28.1513 10.1378C28.2388 9.618 28.3029 9.0946 28.3717 8.572C28.3938 8.40361 28.4195 8.23571 28.4402 8.06711C28.447 8.01121 28.4736 7.99241 28.5268 7.99311C28.6618 7.99491 28.7967 7.99381 28.9315 7.99381ZM32.3189 10.5049C32.3186 10.1123 32.264 9.8186 32.1344 9.5274C31.9071 9.0166 31.4062 8.7681 30.863 8.9002C30.4614 8.9979 30.1544 9.2429 29.8919 9.5479C29.4314 10.0829 29.1668 10.7153 29.0158 11.3956C28.852 12.1333 28.7735 12.8863 28.6397 13.6295C28.6149 13.7671 28.6625 13.8388 28.7678 13.9002C29.2717 14.1939 29.8039 14.2646 30.3556 14.0718C30.7625 13.9296 31.0775 13.6503 31.3409 13.3164C31.9907 12.4925 32.2876 11.5442 32.3189 10.5049Z" fill="#1B1B1B"/>
<path d="M9.62674 13.1993C9.58854 13.2132 9.58194 13.2541 9.56534 13.2854C9.32944 13.7306 9.05804 14.1504 8.69015 14.5C8.33995 14.8328 7.93805 15.0631 7.45085 15.133C6.73496 15.2357 6.06936 14.9074 5.71577 14.2689C5.52367 13.922 5.41877 13.549 5.39327 13.1551C5.31557 11.955 5.60287 10.8443 6.25176 9.83536C6.86526 8.88157 7.71215 8.23627 8.83444 7.98607C9.29594 7.88317 9.76234 7.87197 10.2324 7.91777C10.5775 7.95137 10.9179 8.00497 11.2505 8.10387C11.3798 8.14227 11.3785 8.14347 11.3567 8.27417C11.1893 9.27646 11.0235 10.279 10.8557 11.2811C10.7749 11.7634 10.6934 12.2456 10.6353 12.7313C10.5936 13.0801 10.555 13.4295 10.5384 13.7807C10.5261 14.0411 10.5137 14.3015 10.5072 14.5621C10.5043 14.679 10.5139 14.7963 10.521 14.9132C10.5249 14.9775 10.4995 15.0032 10.4351 15.0028C10.1507 15.0013 9.86644 15.0009 9.58204 15.0031C9.50864 15.0037 9.49284 14.967 9.49554 14.9041C9.50874 14.5998 9.52394 14.2956 9.55574 13.9926C9.58234 13.7393 9.61244 13.4863 9.64114 13.2332C9.64244 13.2214 9.64344 13.2099 9.62674 13.1993ZM6.50076 12.5922C6.50536 12.9632 6.55606 13.2426 6.67076 13.504C6.86286 13.9419 7.29276 14.1584 7.75955 14.0508C8.15805 13.9589 8.45805 13.7137 8.71884 13.4162C9.22334 12.8408 9.51964 12.1596 9.70364 11.4252C9.82274 10.95 9.87894 10.463 9.96454 9.98146C10.0255 9.63826 10.0795 9.29386 10.1366 8.94997C10.143 8.91167 10.1542 8.87107 10.095 8.86447C9.78934 8.83027 9.48354 8.79157 9.17554 8.83597C8.64254 8.91267 8.19045 9.15746 7.80895 9.52686C6.94416 10.3643 6.55926 11.41 6.50076 12.5922Z" fill="#1B1B1B"/>
<path d="M37.7963 13.1919C37.7413 13.2147 37.735 13.2526 37.7193 13.2824C37.4856 13.7249 37.2218 14.1465 36.8602 14.498C36.5108 14.8376 36.1052 15.0648 35.6143 15.1341C34.8948 15.2357 34.2319 14.9148 33.8737 14.2785C33.6776 13.9302 33.5715 13.5544 33.5457 13.1575C33.4678 11.9608 33.7528 10.8524 34.3978 9.84491C35.011 8.88712 35.8588 8.23892 36.984 7.98672C37.4454 7.88332 37.9118 7.87203 38.3819 7.91743C38.727 7.95073 39.0674 8.00412 39.4 8.10292C39.5322 8.14222 39.5305 8.14202 39.5075 8.27982C39.3289 9.35141 39.1521 10.4233 38.9722 11.4947C38.8849 12.0146 38.8043 12.5354 38.7499 13.0597C38.7148 13.3974 38.6839 13.7358 38.6734 14.0756C38.6649 14.3508 38.6457 14.626 38.6729 14.9011C38.6806 14.9786 38.649 15.0043 38.573 15.0035C38.2975 15.0006 38.0219 15.0004 37.7464 15.0036C37.6675 15.0045 37.6441 14.9727 37.6474 14.8987C37.6634 14.5388 37.6854 14.1794 37.7246 13.8212C37.7471 13.6156 37.7714 13.4101 37.7963 13.1919ZM37.6797 8.81322C37.1985 8.82062 36.8029 8.93402 36.4416 9.15942C35.7797 9.57231 35.3461 10.1726 35.0478 10.8796C34.8421 11.3671 34.7304 11.8762 34.709 12.4065C34.6964 12.7195 34.7173 13.0266 34.8063 13.3274C35.0108 14.0181 35.6172 14.2258 36.1987 13.9732C36.535 13.8271 36.7946 13.5825 37.0205 13.3004C37.4361 12.7816 37.6984 12.1873 37.8747 11.5513C37.9869 11.1467 38.0397 10.7307 38.1099 10.318C38.1879 9.85911 38.2631 9.39971 38.3407 8.94072C38.3484 8.89532 38.3452 8.86812 38.2899 8.86382C38.0681 8.84682 37.8465 8.82722 37.6797 8.81322Z" fill="#1B1B1B"/>
<path d="M16.5018 8.04574C16.6601 8.04584 16.8185 8.04724 16.9768 8.04504C17.034 8.04424 17.0598 8.06424 17.0692 8.12324C17.1908 8.88383 17.3136 9.64433 17.4382 10.4045C17.5447 11.0548 17.6545 11.7046 17.7617 12.3549C17.8241 12.7334 17.8841 13.1124 17.9455 13.4911C17.9496 13.5162 17.9454 13.5516 17.9768 13.5572C18.0134 13.5637 18.0125 13.5241 18.0206 13.5022C18.3854 12.5181 18.7792 11.5456 19.1846 10.5777C19.5311 9.75043 19.8743 8.92174 20.2163 8.09254C20.2465 8.01924 20.2854 7.99044 20.3662 7.99174C20.6476 7.99644 20.9291 7.99334 21.2106 7.99364C21.3272 7.99374 21.3321 8.00104 21.2869 8.10404C20.6834 9.48133 20.0814 10.8592 19.4759 12.2356C19.1041 13.0806 18.7518 13.9347 18.3232 14.7538C17.9606 15.4467 17.5511 16.1085 17.0385 16.7026C16.6058 17.2041 16.1282 17.6493 15.5185 17.9317C15.3854 17.9934 15.2501 18.0489 15.1102 18.0937C15.0548 18.1114 15.0256 18.1068 15.0101 18.042C14.9401 17.7514 14.8669 17.4616 14.7919 17.1723C14.7753 17.1082 14.8027 17.0839 14.8565 17.0619C15.2029 16.9208 15.5291 16.7421 15.8298 16.5196C16.166 16.2709 16.427 15.9501 16.6713 15.6153C16.8374 15.3876 16.9775 15.1434 17.1117 14.8957C17.1885 14.7539 17.2023 14.6054 17.1727 14.4522C16.8499 12.7841 16.5257 11.1162 16.202 9.44823C16.1188 9.01973 16.0362 8.59114 15.9536 8.16254C15.9314 8.04734 15.933 8.04574 16.0533 8.04554C16.2028 8.04544 16.3523 8.04564 16.5018 8.04574Z" fill="#1B1B1B"/>
<path d="M0.25003 12.3184C0.26863 11.2257 0.572828 10.2222 1.20342 9.325C1.56872 8.8053 2.02202 8.38091 2.61061 8.12351C3.23101 7.85221 3.8694 7.79121 4.5075 8.04981C5.10439 8.29171 5.45229 8.7536 5.52149 9.3891C5.61589 10.2561 5.26089 10.9164 4.5146 11.3631C4.0644 11.6326 3.56441 11.757 3.05191 11.8374C2.51201 11.9221 1.96782 11.9427 1.42232 11.9383C1.36372 11.9378 1.31662 11.9427 1.31412 12.0173C1.29562 12.5633 1.32912 13.099 1.66412 13.563C1.92162 13.9197 2.28522 14.0908 2.71681 14.1161C3.34621 14.153 3.9342 14.0168 4.4647 13.6662C4.5282 13.6243 4.5447 13.6498 4.5543 13.7086C4.5957 13.96 4.6357 14.2117 4.6809 14.4624C4.6942 14.5363 4.6568 14.5677 4.6026 14.5995C4.1763 14.8494 3.7131 14.9895 3.22671 15.0567C2.84201 15.1099 2.45551 15.1253 2.07232 15.0481C1.25312 14.883 0.732727 14.3775 0.453129 13.6058C0.30283 13.1904 0.24853 12.7587 0.25003 12.3184ZM1.76152 11.005C2.10452 11.0007 2.44631 10.9762 2.78561 10.928C3.13751 10.8781 3.48361 10.8027 3.8041 10.6397C4.1576 10.46 4.4826 10.1518 4.4093 9.5565C4.3754 9.2806 4.2498 9.0611 3.9944 8.9334C3.686 8.7792 3.36571 8.7849 3.04571 8.8877C2.68181 9.0047 2.40301 9.244 2.16482 9.5341C1.82672 9.9458 1.60452 10.4176 1.45182 10.925C1.43192 10.9912 1.45172 11.0084 1.51532 11.0058C1.59722 11.0024 1.67942 11.005 1.76152 11.005Z" fill="#1B1B1B"/>
<path d="M12.7157 15.0991C12.2049 15.0941 11.7131 14.9594 11.253 14.7038C11.1773 14.6617 11.1585 14.6209 11.1913 14.5364C11.275 14.3206 11.3477 14.1006 11.4247 13.8823C11.4635 13.7725 11.4632 13.7729 11.5592 13.8295C11.8909 14.0249 12.2424 14.1676 12.6269 14.2141C13.17 14.2798 13.6386 14.0762 13.8867 13.6453C14.1146 13.2494 14.0928 12.5547 13.5637 12.1517C13.3418 11.9827 13.0972 11.8476 12.8811 11.6706C12.4936 11.3531 12.1998 10.9728 12.1005 10.4722C11.926 9.59209 12.3649 8.6668 13.1574 8.2421C13.8846 7.85231 14.6341 7.85251 15.3904 8.14901C15.6663 8.2571 15.6631 8.2666 15.5618 8.5408C15.4999 8.7085 15.4352 8.8752 15.3745 9.0434C15.3529 9.1033 15.3277 9.1109 15.2723 9.0768C15.017 8.9198 14.7341 8.8535 14.4384 8.8265C14.2587 8.81 14.0811 8.8132 13.9064 8.8583C13.0888 9.0695 12.9101 10.0647 13.4313 10.5819C13.5928 10.7421 13.7742 10.875 13.9646 10.9968C14.2381 11.1717 14.4885 11.3742 14.6951 11.6253C15.0431 12.0483 15.1928 12.5305 15.1357 13.0808C15.0784 13.633 14.8812 14.114 14.4673 14.493C14.1238 14.8075 13.7098 14.9758 13.2564 15.0571C13.0828 15.088 12.9072 15.0951 12.7157 15.0991Z" fill="#1B1B1B"/>
</svg>
