<svg width="16" height="17" viewBox="0 0 16 17" fill="none" xmlns="http://www.w3.org/2000/svg">
<path d="M10.2596 5.43568C10.7803 4.91498 11.6245 4.91498 12.1452 5.43568C12.6659 5.95637 12.6659 6.80059 12.1452 7.32129L7.19549 12.271C6.28427 13.1823 4.80688 13.1823 3.89566 12.271C2.98443 11.3598 2.98443 9.88243 3.89566 8.97121L8.77469 4.09217C9.03504 3.83182 9.03504 3.40971 8.77469 3.14936C8.51434 2.88901 8.09223 2.88901 7.83188 3.14936L2.95285 8.0284C1.52093 9.46032 1.52093 11.7819 2.95285 13.2139C4.38477 14.6458 6.70638 14.6458 8.1383 13.2139L13.088 8.2641C14.1294 7.2227 14.1294 5.53426 13.088 4.49287C12.0466 3.45147 10.3582 3.45147 9.31681 4.49287L4.22564 9.58404C3.57477 10.2349 3.57477 11.2902 4.22564 11.9411C4.87651 12.5919 5.93179 12.5919 6.58266 11.9411L11.6031 6.9206C11.8635 6.66025 11.8635 6.23814 11.6031 5.97779C11.3428 5.71744 10.9207 5.71744 10.6603 5.97779L5.63985 10.9982C5.50968 11.1284 5.29862 11.1284 5.16845 10.9982C5.03827 10.8681 5.03827 10.657 5.16845 10.5268L10.2596 5.43568Z" fill="#9E9E9E"/>
</svg>
