<svg width="16" height="17" viewBox="0 0 16 17" fill="none" xmlns="http://www.w3.org/2000/svg">
<path fill-rule="evenodd" clip-rule="evenodd" d="M9.60035 2.53333C8.6522 1.82222 7.3485 1.82222 6.40035 2.53333L1.81864 5.96962C1.08442 6.52028 0.684969 7.4098 0.761186 8.3244L1.18316 13.3881C1.29834 14.7702 2.45372 15.8333 3.84062 15.8333H12.1601C13.547 15.8333 14.7024 14.7702 14.8175 13.3881L15.2395 8.3244C15.3157 7.4098 14.9163 6.52028 14.1821 5.96961L9.60035 2.53333ZM7.20035 3.6C7.67443 3.24444 8.32628 3.24444 8.80035 3.6L13.3821 7.03628C13.7492 7.31161 13.9489 7.75638 13.9108 8.21368L13.4888 13.2774C13.4312 13.9684 12.8535 14.5 12.1601 14.5H10.0582L10.193 12.8829C10.2999 11.6002 9.28757 10.5 8.00035 10.5C6.71313 10.5 5.70083 11.6002 5.80773 12.8829L5.94249 14.5H3.84062C3.14717 14.5 2.56948 13.9684 2.51189 13.2774L2.08991 8.21368C2.05181 7.75638 2.25153 7.31161 2.61864 7.03628L7.20035 3.6ZM8.86425 12.7722L8.72026 14.5H7.28044L7.13646 12.7722C7.09434 12.2668 7.49319 11.8333 8.00035 11.8333C8.50752 11.8333 8.90636 12.2668 8.86425 12.7722Z" fill="#757575"/>
</svg>
