<svg width="80" height="16" viewBox="0 0 80 16" fill="none" xmlns="http://www.w3.org/2000/svg">
<path d="M7.71196 0.49453C7.84054 0.273774 8.15946 0.273774 8.28804 0.494529L10.5123 4.3134C10.5594 4.39426 10.6384 4.45161 10.7298 4.47141L15.0491 5.40674C15.2988 5.46081 15.3974 5.76412 15.2271 5.95462L12.2825 9.25014C12.2202 9.31993 12.19 9.41271 12.1994 9.50582L12.6446 13.9027C12.6704 14.1569 12.4124 14.3444 12.1786 14.2414L8.13442 12.4592C8.04878 12.4215 7.95122 12.4215 7.86558 12.4592L3.82142 14.2414C3.58764 14.3444 3.32963 14.1569 3.35537 13.9027L3.80055 9.50582C3.80998 9.41271 3.77983 9.31993 3.71748 9.25014L0.772865 5.95462C0.602647 5.76412 0.701197 5.46081 0.950882 5.40674L5.27018 4.47141C5.36165 4.45161 5.44057 4.39426 5.48767 4.3134L7.71196 0.49453Z" fill="#FFC107"/>
<path d="M23.712 0.49453C23.8405 0.273774 24.1595 0.273774 24.288 0.494529L26.5123 4.3134C26.5594 4.39426 26.6384 4.45161 26.7298 4.47141L31.0491 5.40674C31.2988 5.46081 31.3974 5.76412 31.2271 5.95462L28.2825 9.25014C28.2202 9.31993 28.19 9.41271 28.1994 9.50582L28.6446 13.9027C28.6704 14.1569 28.4124 14.3444 28.1786 14.2414L24.1344 12.4592C24.0488 12.4215 23.9512 12.4215 23.8656 12.4592L19.8214 14.2414C19.5876 14.3444 19.3296 14.1569 19.3554 13.9027L19.8006 9.50582C19.81 9.41271 19.7798 9.31993 19.7175 9.25014L16.7729 5.95462C16.6026 5.76412 16.7012 5.46081 16.9509 5.40674L21.2702 4.47141C21.3616 4.45161 21.4406 4.39426 21.4877 4.3134L23.712 0.49453Z" fill="#FFC107"/>
<path d="M39.712 0.49453C39.8405 0.273774 40.1595 0.273774 40.288 0.494529L42.5123 4.3134C42.5594 4.39426 42.6384 4.45161 42.7298 4.47141L47.0491 5.40674C47.2988 5.46081 47.3974 5.76412 47.2271 5.95462L44.2825 9.25014C44.2202 9.31993 44.19 9.41271 44.1994 9.50582L44.6446 13.9027C44.6704 14.1569 44.4124 14.3444 44.1786 14.2414L40.1344 12.4592C40.0488 12.4215 39.9512 12.4215 39.8656 12.4592L35.8214 14.2414C35.5876 14.3444 35.3296 14.1569 35.3554 13.9027L35.8006 9.50582C35.81 9.41271 35.7798 9.31993 35.7175 9.25014L32.7729 5.95462C32.6026 5.76412 32.7012 5.46081 32.9509 5.40674L37.2702 4.47141C37.3616 4.45161 37.4406 4.39426 37.4877 4.3134L39.712 0.49453Z" fill="#FFC107"/>
<path d="M55.712 0.49453C55.8405 0.273774 56.1595 0.273774 56.288 0.494529L58.5123 4.3134C58.5594 4.39426 58.6384 4.45161 58.7298 4.47141L63.0491 5.40674C63.2988 5.46081 63.3974 5.76412 63.2271 5.95462L60.2825 9.25014C60.2202 9.31993 60.19 9.41271 60.1994 9.50582L60.6446 13.9027C60.6704 14.1569 60.4124 14.3444 60.1786 14.2414L56.1344 12.4592C56.0488 12.4215 55.9512 12.4215 55.8656 12.4592L51.8214 14.2414C51.5876 14.3444 51.3296 14.1569 51.3554 13.9027L51.8006 9.50582C51.81 9.41271 51.7798 9.31993 51.7175 9.25014L48.7729 5.95462C48.6026 5.76412 48.7012 5.46081 48.9509 5.40674L53.2702 4.47141C53.3616 4.45161 53.4406 4.39426 53.4877 4.3134L55.712 0.49453Z" fill="#FFC107"/>
<path d="M71.712 0.49453C71.8405 0.273774 72.1595 0.273774 72.288 0.494529L74.5123 4.3134C74.5594 4.39426 74.6384 4.45161 74.7298 4.47141L79.0491 5.40674C79.2988 5.46081 79.3974 5.76412 79.2271 5.95462L76.2825 9.25014C76.2202 9.31993 76.19 9.41271 76.1994 9.50582L76.6446 13.9027C76.6704 14.1569 76.4124 14.3444 76.1786 14.2414L72.1344 12.4592C72.0488 12.4215 71.9512 12.4215 71.8656 12.4592L67.8214 14.2414C67.5876 14.3444 67.3296 14.1569 67.3554 13.9027L67.8006 9.50582C67.81 9.41271 67.7798 9.31993 67.7175 9.25014L64.7729 5.95462C64.6026 5.76412 64.7012 5.46081 64.9509 5.40674L69.2702 4.47141C69.3616 4.45161 69.4406 4.39426 69.4877 4.3134L71.712 0.49453Z" fill="#FFC107"/>
</svg>
