<svg width="31" height="31" viewBox="0 0 31 31" fill="none" xmlns="http://www.w3.org/2000/svg">
<path d="M15.1041 10.4348L13.0998 19.8051H10.6755L12.68 10.4348H15.1041ZM25.3028 16.4853L26.5787 12.9666L27.313 16.4853H25.3028ZM28.0084 19.8051H30.25L28.2917 10.4348H26.224C25.758 10.4348 25.3652 10.705 25.1913 11.1216L21.5539 19.8051H24.0998L24.6052 18.4057H27.7149L28.0084 19.8051ZM21.6802 16.746C21.6907 14.273 18.2616 14.136 18.2845 13.0311C18.2919 12.6953 18.6122 12.3377 19.3124 12.2462C19.6595 12.2015 20.6173 12.1653 21.7031 12.6656L22.1278 10.6778C21.5447 10.4668 20.7942 10.2637 19.8603 10.2637C17.4639 10.2637 15.778 11.5366 15.7646 13.3609C15.7492 14.7099 16.9688 15.4621 17.8858 15.9114C18.8312 16.3707 19.148 16.6651 19.1433 17.0754C19.1368 17.7041 18.3895 17.9825 17.6936 17.993C16.4742 18.012 15.7673 17.6634 15.204 17.4008L14.7639 19.455C15.3312 19.7147 16.3766 19.9406 17.459 19.9522C20.0068 19.9522 21.6726 18.6942 21.6802 16.746ZM11.6401 10.4348L7.71233 19.8051H5.15021L3.21719 12.3269C3.10001 11.8671 2.99779 11.6981 2.64141 11.5037C2.05847 11.1872 1.09617 10.8911 0.25 10.7069L0.307325 10.4348H4.43217C4.95758 10.4348 5.4303 10.7844 5.55064 11.3897L6.57174 16.8124L9.09339 10.4348H11.6401Z" fill="#1434CB"/>
</svg>
