<svg width="16" height="16" viewBox="0 0 16 16" fill="none" xmlns="http://www.w3.org/2000/svg">
<path d="M13.334 4.00016V3.3335C13.334 2.96531 13.0355 2.66683 12.6673 2.66683H8.66732V13.3335H9.33398C9.70217 13.3335 10.0007 13.632 10.0007 14.0002C10.0007 14.3684 9.70217 14.6668 9.33398 14.6668H6.66732C6.29913 14.6668 6.00065 14.3684 6.00065 14.0002C6.00065 13.632 6.29913 13.3335 6.66732 13.3335H7.33398V2.66683H3.33398C2.96579 2.66683 2.66732 2.96531 2.66732 3.3335V4.00016C2.66732 4.36835 2.36884 4.66683 2.00065 4.66683C1.63246 4.66683 1.33398 4.36835 1.33398 4.00016V3.3335C1.33398 2.22893 2.22941 1.3335 3.33398 1.3335H12.6673C13.7719 1.3335 14.6673 2.22893 14.6673 3.3335V4.00016C14.6673 4.36835 14.3688 4.66683 14.0007 4.66683C13.6325 4.66683 13.334 4.36835 13.334 4.00016Z" fill="#9E9E9E"/>
</svg>
