<svg width="31" height="31" viewBox="0 0 31 31" fill="none" xmlns="http://www.w3.org/2000/svg">
<path d="M6.20729 26.6701V25.1251C6.21636 24.9952 6.19761 24.8648 6.1523 24.7427C6.107 24.6205 6.03617 24.5095 5.94455 24.4169C5.85293 24.3243 5.74263 24.2523 5.62099 24.2057C5.49934 24.1591 5.36917 24.139 5.23914 24.1467C5.06897 24.1356 4.89892 24.1703 4.74675 24.2473C4.59458 24.3243 4.46585 24.4407 4.37397 24.5844C4.29024 24.445 4.17047 24.3308 4.02727 24.2537C3.88407 24.1767 3.72275 24.1397 3.5603 24.1467C3.41869 24.1396 3.27767 24.1695 3.15121 24.2337C3.02476 24.2978 2.91724 24.3939 2.83932 24.5123V24.2085H2.30371V26.6701H2.84444V25.3054C2.83275 25.2211 2.83986 25.1354 2.86524 25.0543C2.89063 24.9731 2.93367 24.8986 2.99128 24.8361C3.04889 24.7735 3.11962 24.7246 3.19842 24.6926C3.27721 24.6607 3.3621 24.6466 3.44698 24.6513C3.80232 24.6513 3.98259 24.8831 3.98259 25.3002V26.6701H4.52332V25.3054C4.51251 25.2213 4.52023 25.1359 4.54594 25.0551C4.57165 24.9744 4.61473 24.9003 4.67216 24.8379C4.72958 24.7756 4.79995 24.7266 4.87833 24.6944C4.95671 24.6621 5.0412 24.6474 5.12585 24.6513C5.49147 24.6513 5.66656 24.8831 5.66656 25.3002V26.6701H6.20729ZM14.2101 24.2085H13.3347V23.4617H12.794V24.2085H12.2944V24.6977H12.794V25.8204C12.794 26.392 13.0154 26.7319 13.6488 26.7319C13.8855 26.7326 14.1175 26.6666 14.3183 26.5413L14.1638 26.083C14.0202 26.1687 13.8572 26.2165 13.69 26.2221C13.4222 26.2221 13.3347 26.0572 13.3347 25.8101V24.6977H14.2101V24.2085ZM18.7781 24.1467C18.6475 24.1428 18.5183 24.1743 18.4041 24.2377C18.2899 24.3012 18.1949 24.3943 18.1292 24.5072V24.2085H17.5987V26.6701H18.1343V25.2899C18.1343 24.8831 18.3094 24.6565 18.6597 24.6565C18.7742 24.6549 18.8879 24.6759 18.9944 24.7183L19.1592 24.2136C19.0368 24.1698 18.908 24.1472 18.7781 24.1467V24.1467ZM11.8721 24.4041C11.569 24.2239 11.2204 24.1345 10.8679 24.1467C10.2448 24.1467 9.84311 24.4454 9.84311 24.9346C9.84311 25.3363 10.1418 25.5835 10.6928 25.6607L10.9451 25.6968C11.2387 25.7379 11.3777 25.8152 11.3777 25.9542C11.3777 26.1448 11.182 26.253 10.8164 26.253C10.5223 26.2614 10.2339 26.1707 9.99757 25.9954L9.74525 26.4126C10.0572 26.6305 10.4309 26.7424 10.8113 26.7319C11.5219 26.7319 11.9339 26.3971 11.9339 25.9285C11.9339 25.4959 11.6095 25.2693 11.0739 25.192L10.8216 25.156C10.5898 25.1251 10.4044 25.0788 10.4044 24.914C10.4044 24.7338 10.5795 24.6256 10.8731 24.6256C11.1426 24.6297 11.4067 24.7023 11.6404 24.8367L11.8721 24.4041ZM26.2196 24.1467C26.089 24.1428 25.9598 24.1743 25.8456 24.2377C25.7314 24.3012 25.6364 24.3943 25.5707 24.5072V24.2085H25.0403V26.6701H25.5758V25.2899C25.5758 24.8831 25.7509 24.6565 26.1011 24.6565C26.2157 24.6549 26.3294 24.6759 26.4359 24.7183L26.6007 24.2136C26.4784 24.1698 26.3495 24.1472 26.2196 24.1467V24.1467ZM19.3188 25.4392C19.3117 25.6126 19.3409 25.7856 19.4047 25.9471C19.4684 26.1085 19.5653 26.2548 19.689 26.3766C19.8127 26.4983 19.9605 26.5928 20.1229 26.654C20.2853 26.7152 20.4587 26.7418 20.632 26.7319C20.9536 26.7481 21.2695 26.6433 21.5178 26.4383L21.2603 26.0057C21.0751 26.1469 20.8494 26.2245 20.6166 26.2272C20.4158 26.215 20.2274 26.1267 20.0896 25.9803C19.9517 25.8338 19.875 25.6403 19.875 25.4393C19.875 25.2382 19.9517 25.0447 20.0896 24.8983C20.2274 24.7518 20.4158 24.6635 20.6166 24.6513C20.8494 24.654 21.0751 24.7317 21.2603 24.8728L21.5178 24.4402C21.2695 24.2352 20.9536 24.1305 20.632 24.1467C20.4588 24.1368 20.2853 24.1633 20.1229 24.2245C19.9605 24.2857 19.8127 24.3802 19.689 24.502C19.5653 24.6237 19.4685 24.77 19.4047 24.9314C19.3409 25.0928 19.3117 25.2658 19.3188 25.4392V25.4392ZM24.3347 25.4392V24.2085H23.7992V24.5072C23.7077 24.3893 23.5894 24.2951 23.4541 24.2324C23.3189 24.1697 23.1705 24.1403 23.0215 24.1467C22.6897 24.1629 22.3768 24.3062 22.1476 24.5469C21.9185 24.7875 21.7907 25.107 21.7907 25.4393C21.7907 25.7716 21.9185 26.0911 22.1476 26.3317C22.3768 26.5724 22.6897 26.7156 23.0215 26.7319C23.1705 26.7383 23.3189 26.7088 23.4541 26.6461C23.5894 26.5834 23.7077 26.4892 23.7992 26.3714V26.6701H24.3347V25.4392ZM22.3417 25.4392C22.35 25.294 22.4007 25.1543 22.4874 25.0375C22.5741 24.9207 22.6932 24.8318 22.8298 24.7818C22.9664 24.7318 23.1147 24.7229 23.2564 24.7562C23.398 24.7895 23.5268 24.8635 23.6269 24.9691C23.727 25.0747 23.794 25.2073 23.8196 25.3505C23.8452 25.4937 23.8284 25.6413 23.7712 25.7751C23.7139 25.9088 23.6188 26.0229 23.4975 26.1032C23.3762 26.1836 23.234 26.2267 23.0885 26.2272C22.9865 26.2286 22.8854 26.2088 22.7914 26.1691C22.6974 26.1295 22.6127 26.0708 22.5425 25.9968C22.4724 25.9227 22.4183 25.835 22.3838 25.739C22.3492 25.6431 22.3349 25.541 22.3417 25.4392V25.4392ZM15.8787 24.1467C15.5447 24.1643 15.2305 24.3105 15.002 24.5547C14.7735 24.799 14.6485 25.1222 14.6532 25.4566C14.6578 25.7911 14.7918 26.1107 15.027 26.3485C15.2623 26.5862 15.5804 26.7236 15.9148 26.7319C16.2822 26.7448 16.6415 26.622 16.9241 26.3868L16.6615 25.9903C16.4581 26.1533 16.2062 26.2439 15.9457 26.2478C15.7687 26.2627 15.5929 26.2081 15.4554 26.0956C15.318 25.9832 15.2297 25.8216 15.2092 25.6452H17.0374C17.0426 25.5783 17.0477 25.5114 17.0477 25.4392C17.0426 24.6719 16.5688 24.1467 15.8787 24.1467V24.1467ZM15.8684 24.6256C16.0302 24.6224 16.1866 24.6836 16.3034 24.7955C16.4202 24.9075 16.4879 25.0612 16.4915 25.223H15.2144C15.2238 25.0577 15.2975 24.9027 15.4197 24.7911C15.5419 24.6794 15.703 24.62 15.8684 24.6256V24.6256ZM29.3043 25.4392V23.2197H28.7687V24.5072C28.6773 24.3894 28.559 24.2951 28.4237 24.2324C28.2884 24.1697 28.1401 24.1403 27.9911 24.1467C27.6593 24.1629 27.3463 24.3062 27.1172 24.5468C26.8881 24.7875 26.7603 25.107 26.7603 25.4393C26.7603 25.7716 26.8881 26.0911 27.1172 26.3317C27.3463 26.5724 27.6593 26.7156 27.9911 26.7319C28.1401 26.7383 28.2885 26.7088 28.4237 26.6461C28.559 26.5834 28.6773 26.4892 28.7687 26.3714V26.6701H29.3043V25.4392ZM30.1971 26.3133C30.2304 26.3131 30.2634 26.3197 30.294 26.3326C30.3235 26.3449 30.3504 26.3627 30.3732 26.385C30.3958 26.4073 30.4139 26.4338 30.4265 26.463C30.4394 26.493 30.446 26.5252 30.446 26.5579C30.446 26.5905 30.4394 26.6228 30.4265 26.6528C30.4139 26.6818 30.3957 26.7082 30.3732 26.7304C30.3503 26.7528 30.3235 26.7707 30.294 26.7832C30.2634 26.7963 30.2304 26.8029 30.1971 26.8027C30.1481 26.8032 30.1001 26.7892 30.059 26.7626C30.0179 26.7359 29.9855 26.6977 29.966 26.6528C29.9531 26.6228 29.9465 26.5905 29.9465 26.5579C29.9465 26.5253 29.9531 26.493 29.966 26.463C29.9785 26.4338 29.9966 26.4074 30.0191 26.385C30.0419 26.3625 30.0689 26.3447 30.0985 26.3326C30.1298 26.3196 30.1633 26.3131 30.1971 26.3133V26.3133ZM30.1971 26.7487C30.2225 26.7489 30.2477 26.7438 30.2709 26.7337C30.2933 26.724 30.3136 26.7102 30.3309 26.6929C30.3664 26.657 30.3864 26.6085 30.3864 26.558C30.3864 26.5075 30.3664 26.459 30.3309 26.4231C30.3137 26.4059 30.2933 26.3921 30.2709 26.3826C30.2476 26.3727 30.2225 26.3677 30.1971 26.3679C30.1713 26.3677 30.1457 26.3727 30.1219 26.3826C30.0992 26.392 30.0785 26.4057 30.061 26.4231C30.0255 26.459 30.0055 26.5075 30.0055 26.558C30.0055 26.6085 30.0255 26.657 30.061 26.6929C30.0785 26.7103 30.0992 26.7242 30.1219 26.7337C30.1457 26.7438 30.1713 26.7489 30.1971 26.7487V26.7487ZM30.2115 26.4435C30.2356 26.4419 30.2595 26.4488 30.279 26.463C30.2868 26.4694 30.293 26.4775 30.2971 26.4867C30.3012 26.4959 30.3031 26.506 30.3027 26.516C30.303 26.5247 30.3014 26.5333 30.2982 26.5413C30.2949 26.5493 30.29 26.5565 30.2838 26.5625C30.2689 26.5757 30.25 26.5836 30.2301 26.585L30.3045 26.6707H30.2463L30.1774 26.5856H30.1552V26.6707H30.1066V26.4435H30.2115ZM30.1552 26.4861V26.5466H30.211C30.2217 26.5472 30.2323 26.5445 30.2416 26.5391C30.2453 26.5366 30.2483 26.5331 30.2503 26.5291C30.2523 26.5251 30.2532 26.5205 30.2529 26.516C30.2532 26.5116 30.2522 26.5072 30.2502 26.5033C30.2483 26.4993 30.2453 26.4959 30.2416 26.4935C30.2323 26.4881 30.2217 26.4855 30.211 26.4861H30.1552ZM27.3114 25.4392C27.3197 25.294 27.3703 25.1543 27.4571 25.0375C27.5438 24.9207 27.6628 24.8318 27.7994 24.7819C27.9361 24.7319 28.0844 24.723 28.226 24.7563C28.3676 24.7896 28.4964 24.8636 28.5965 24.9692C28.6966 25.0748 28.7636 25.2073 28.7892 25.3506C28.8148 25.4938 28.7979 25.6414 28.7407 25.7751C28.6835 25.9089 28.5883 26.0229 28.467 26.1033C28.3457 26.1836 28.2035 26.2267 28.0581 26.2272C27.9561 26.2286 27.8549 26.2088 27.761 26.1691C27.667 26.1295 27.5823 26.0708 27.5121 25.9967C27.442 25.9227 27.3879 25.835 27.3534 25.739C27.3188 25.6431 27.3045 25.541 27.3114 25.4392V25.4392ZM9.22512 25.4392V24.2085H8.68951V24.5072C8.59809 24.3893 8.47979 24.2951 8.3445 24.2324C8.20921 24.1697 8.06087 24.1403 7.91188 24.1467C7.58002 24.1629 7.26713 24.3062 7.03801 24.5469C6.80889 24.7875 6.68109 25.107 6.68109 25.4393C6.68109 25.7716 6.80889 26.0911 7.03801 26.3317C7.26713 26.5724 7.58002 26.7156 7.91188 26.7319C8.06087 26.7383 8.20921 26.7088 8.3445 26.6461C8.47979 26.5834 8.59809 26.4892 8.68951 26.3714V26.6701H9.22512V25.4392ZM7.23214 25.4392C7.24046 25.294 7.29111 25.1543 7.37784 25.0375C7.46457 24.9207 7.58359 24.8318 7.72023 24.7819C7.85687 24.7319 8.00514 24.723 8.14678 24.7563C8.28841 24.7896 8.4172 24.8636 8.51728 24.9692C8.61735 25.0748 8.68433 25.2074 8.70996 25.3506C8.73559 25.4938 8.71873 25.6414 8.66149 25.7751C8.60424 25.9089 8.50909 26.0229 8.38779 26.1033C8.26649 26.1836 8.12433 26.2267 7.97884 26.2272C7.87687 26.2286 7.77571 26.2088 7.68175 26.1691C7.58779 26.1295 7.50306 26.0708 7.43291 25.9967C7.36276 25.9227 7.3087 25.835 7.27415 25.739C7.23959 25.6431 7.22529 25.541 7.23214 25.4392V25.4392Z" fill="#1B1B1B"/>
<path d="M19.8064 5.44849H11.6943V20.0262H19.8064V5.44849Z" fill="#FF5F00"/>
<path d="M12.2092 12.7378C12.2079 11.3338 12.5261 9.94802 13.1396 8.68521C13.753 7.42241 14.6458 6.31572 15.7502 5.44894C14.3825 4.37392 12.74 3.70539 11.0104 3.51975C9.28071 3.3341 7.53373 3.63884 5.96909 4.39912C4.40445 5.15941 3.08527 6.34457 2.16235 7.81914C1.23943 9.29371 0.75 10.9982 0.75 12.7378C0.75 14.4774 1.23943 16.1819 2.16235 17.6564C3.08527 19.131 4.40445 20.3162 5.96909 21.0764C7.53373 21.8367 9.28071 22.1415 11.0104 21.9558C12.74 21.7702 14.3825 21.1016 15.7502 20.0266C14.6458 19.1598 13.753 18.0532 13.1396 16.7903C12.5261 15.5275 12.2079 14.1417 12.2092 12.7378V12.7378Z" fill="#EB001B"/>
<path d="M30.7502 12.7378C30.7503 14.4773 30.2609 16.1818 29.338 17.6564C28.4152 19.131 27.096 20.3161 25.5314 21.0764C23.9668 21.8367 22.2199 22.1415 20.4902 21.9558C18.7606 21.7702 17.1181 21.1016 15.7505 20.0266C16.8539 19.159 17.746 18.0521 18.3594 16.7895C18.9727 15.5269 19.2914 14.1415 19.2914 12.7378C19.2914 11.3341 18.9727 9.94868 18.3594 8.68607C17.746 7.42346 16.8539 6.31659 15.7505 5.44893C17.1181 4.37392 18.7606 3.70539 20.4902 3.51974C22.2199 3.3341 23.9668 3.63884 25.5314 4.39914C27.096 5.15943 28.4152 6.3446 29.338 7.81917C30.2609 9.29374 30.7503 10.9982 30.7502 12.7378V12.7378Z" fill="#F79E1B"/>
<path d="M29.8653 18.4824V18.184H29.9857V18.1232H29.6792V18.184H29.7996V18.4824H29.8653ZM30.4604 18.4824V18.1226H30.3664L30.2584 18.3701L30.1503 18.1226H30.0563V18.4824H30.1226V18.211L30.2239 18.445H30.2927L30.3941 18.2104V18.4824H30.4604Z" fill="#F79E1B"/>
</svg>
